<svg width="202" height="41" viewBox="0 0 202 41" fill="none" xmlns="http://www.w3.org/2000/svg">
<path d="M12 33.1167C7.99999 32.7167 7.33332 29.95 7.49999 28.6167C5.49998 27.4167 1.66666 28.1167 0 28.6167C0.4 38.6167 8.16666 39.7834 12 39.1167V33.1167Z" fill="#345F8C"/>
<path d="M27 16.6165H21C21.8 11.8165 18 10.2832 16 10.1165V5.11649C26 3.91649 27.5 12.2832 27 16.6165Z" fill="#345F8C"/>
<path d="M12.4988 10.6162V5.11621C-0.00124073 5.11621 0.208641 13.4997 1.20866 18.4997C2.00868 22.4997 12.4988 25.6162 14.4988 26.1162C16.4988 26.6162 20.9988 28.1162 20.4988 30.6162C20.0988 32.6162 17.1657 32.9995 15.999 32.9995V38.9995C37.499 33.9995 25.0343 21.1612 17.2087 19.4997C12.4988 18.4997 7.49876 15.6162 7.49876 13.1162C7.49876 11.1162 10.8321 10.6162 12.4988 10.6162Z" fill="#345F8C"/>
<path d="M39.1325 29.9464L32.8834 29.5C32.0995 29.444 32.5319 26.914 32.8633 25.5803C32.8767 25.5263 32.8947 25.4744 32.9172 25.4235L42.1202 4.59584C42.2802 4.23365 42.6389 4 43.0349 4H48.7282C49.1261 4 49.4862 4.23591 49.6451 4.60073L62.8834 35C63.6044 37.1629 62.7551 38.4054 62.0923 38.8737C61.9611 38.9664 61.7996 38.9986 61.6389 38.9961L31.4082 38.5085C31.0796 38.5032 30.7692 38.3391 30.6243 38.0441C30.0642 36.9042 29.561 34.7752 30.6163 32.5152C30.7681 32.19 31.1049 32 31.4638 32H51.3493C52.0718 32 52.5558 31.2574 52.2642 30.5964L46.3839 17.2678C46.0207 16.4445 44.8399 16.4823 44.5301 17.3272L40.1426 29.2932C39.9892 29.7117 39.5772 29.9781 39.1325 29.9464Z" fill="#345F8C"/>
<path d="M69.8 39.1C67.8 39.1 66.8 38.5667 66.8 37.5V6C66.8 4.66666 67.4667 4 68.8 4H85.25C86.25 4 86.75 4.83333 86.75 6.5V8.05C86.75 9.71667 86.25 10.55 85.25 10.55H74.5V19.35H84.9C85.9 19.35 86.4 20.1833 86.4 21.85V23.4C86.4 25.0667 85.9 25.9 84.9 25.9H74.5V37.5C74.5 38.5667 73.5 39.1 71.5 39.1H69.8ZM94.4965 39C93.1632 39 92.4965 38.3333 92.4965 37V6C92.4965 4.66666 93.1632 4 94.4965 4H112.046C113.046 4 113.546 4.83333 113.546 6.5V8.05C113.546 9.71667 113.046 10.55 112.046 10.55H100.196V17.8H110.696C111.696 17.8 112.196 18.6333 112.196 20.3V21.85C112.196 23.5167 111.696 24.35 110.696 24.35H100.196V32.45H112.096C113.096 32.45 113.596 33.2833 113.596 34.95V36.5C113.596 38.1667 113.096 39 112.096 39H94.4965ZM129.291 39.1C127.291 39.1 126.291 38.5667 126.291 37.5V10.55H118.341C117.341 10.55 116.841 9.71667 116.841 8.05V6.5C116.841 4.83333 117.341 4 118.341 4H141.991C142.991 4 143.491 4.83333 143.491 6.5V8.05C143.491 9.71667 142.991 10.55 141.991 10.55H134.041V37.5C134.041 38.5667 133.041 39.1 131.041 39.1H129.291ZM150.233 39C148.899 39 148.233 38.3333 148.233 37V6C148.233 4.66666 148.899 4 150.233 4H167.783C168.783 4 169.283 4.83333 169.283 6.5V8.05C169.283 9.71667 168.783 10.55 167.783 10.55H155.933V17.8H166.433C167.433 17.8 167.933 18.6333 167.933 20.3V21.85C167.933 23.5167 167.433 24.35 166.433 24.35H155.933V32.45H167.833C168.833 32.45 169.333 33.2833 169.333 34.95V36.5C169.333 38.1667 168.833 39 167.833 39H150.233ZM178.628 39.1C176.628 39.1 175.628 38.5667 175.628 37.5V5.5C175.628 4.43333 176.628 3.9 178.628 3.9H180.378C182.378 3.9 183.378 4.43333 183.378 5.5V18.9L183.578 18.95L192.278 4.85C192.511 4.48333 192.878 4.23333 193.378 4.1C193.911 3.96667 194.544 3.9 195.278 3.9H197.628C199.494 3.9 200.428 4.15 200.428 4.65C200.428 4.95 200.294 5.3 200.028 5.7L190.378 20.5L201.328 37.3C201.594 37.7 201.728 38.05 201.728 38.35C201.728 38.85 200.794 39.1 198.928 39.1H196.028C195.294 39.1 194.661 39.0333 194.128 38.9C193.594 38.7667 193.211 38.5167 192.978 38.15L183.578 22.95L183.378 23V37.5C183.378 38.5667 182.378 39.1 180.378 39.1H178.628Z" fill="#345F8C"/>
</svg>
